<svg
  xmlns="http://www.w3.org/2000/svg"
  width="48"
  height="48"
  viewBox="0 0 48 48"
  fill="white"
>
  <path
    d="M43.52 0H4.48C2.016 0 0 2.016 0 4.48v39.04C0 45.984 2.016 48 4.48 48H43.52C45.984 48 48 45.984 48 43.52V4.48C48 2.016 45.984 0 43.52 0zM14.4 40.48H7.36V18.56h7.04v21.92zM10.88 16c-1.824 0-3.04-1.216-3.04-2.72s1.216-2.72 3.04-2.72c1.824 0 3.04 1.216 3.04 2.72S12.704 16 10.88 16zM40 40.48h-7.04v-11.2c0-2.72-0.512-6.24-3.776-6.24-3.776 0-4.352 2.944-4.352 5.952v11.488H18.72V18.56h6.24v3.168h0.128c0.832-1.504 2.368-3.872 5.12-3.872 3.584 0 6.272 2.368 6.272 7.36v16.384H40V40.48z"
    fill="white"
  />
</svg>
